<mxfile host="Electron" modified="2023-10-01T00:45:45.111Z" agent="Mozilla/5.0 (X11; Linux x86_64) AppleWebKit/537.36 (KHTML, like Gecko) draw.io/22.0.0 Chrome/114.0.5735.289 Electron/25.8.3 Safari/537.36" etag="-2qTX7YuZ-Qb8MnICAG4" version="22.0.0" type="device">
  <diagram name="Page-1" id="fo18u6Ch1KVScq3Fo-Wy">
    <mxGraphModel dx="1012" dy="607" grid="1" gridSize="9.8425" guides="1" tooltips="1" connect="1" arrows="1" fold="1" page="1" pageScale="1" pageWidth="3311" pageHeight="2338" math="0" shadow="0">
      <root>
        <object label="" description="Use Edit-&gt;Edit Data... on the document to configure the &quot;description&quot; property and modify this text.&#xa;When creating a new page, use the Extras-&gt;Edit Diagram... function to copy and paste the raw code for the template page." rev="A0" size="A1" scale="1:1" author="John Doe" part_num="" dwg_no="" serial_num="" extra_label="Part #" id="0">
          <mxCell />
        </object>
        <object label="Title Block" id="1">
          <mxCell style="locked=1;" parent="0" />
        </object>
        <mxCell id="BJZrzUYKFe9HMTDBOYGV-1" value="" style="rounded=0;whiteSpace=wrap;html=1;fillColor=none;movable=1;resizable=1;rotatable=1;deletable=1;editable=1;locked=0;connectable=1;" parent="1" vertex="1">
          <mxGeometry x="19.685" y="19.685" width="3271.647" height="2299.208" as="geometry" />
        </mxCell>
        <mxCell id="BJZrzUYKFe9HMTDBOYGV-2" value="" style="rounded=0;whiteSpace=wrap;html=1;fillColor=none;strokeWidth=1;movable=1;resizable=1;rotatable=1;deletable=1;editable=1;locked=0;connectable=1;" parent="1" vertex="1">
          <mxGeometry x="39.37" y="39.37" width="3232.277" height="2259.8379999999997" as="geometry" />
        </mxCell>
        <mxCell id="h7L3MlKvrl_dhOmhB3lf-10" value="Prepared with: draw.io v22.0.0" style="strokeWidth=1;shadow=0;dashed=0;align=center;html=1;shape=mxgraph.mockup.text.textBox;fontColor=#666666;align=left;fontSize=17;spacingLeft=4;spacingTop=-3;whiteSpace=wrap;strokeColor=#333333;mainText=;fillColor=none;fontFamily=Open Sans;movable=1;resizable=1;rotatable=1;deletable=1;editable=1;locked=0;connectable=1;" parent="1" vertex="1">
          <mxGeometry x="2713.15" y="2269.210000000001" width="280" height="30" as="geometry" />
        </mxCell>
        <object label="&lt;div align=&quot;left&quot;&gt;Sheet %pagenumber%/%pagecount%&lt;/div&gt;" placeholders="1" id="h7L3MlKvrl_dhOmhB3lf-12">
          <mxCell style="strokeWidth=1;shadow=0;dashed=0;align=left;html=1;shape=mxgraph.mockup.text.textBox;fontColor=#666666;align=left;fontSize=17;spacingLeft=4;spacingTop=-3;whiteSpace=wrap;strokeColor=#333333;mainText=;fillColor=none;fontFamily=Open Sans;movable=1;resizable=1;rotatable=1;deletable=1;editable=1;locked=0;connectable=1;" parent="1" vertex="1">
            <mxGeometry x="2553.15" y="2269.210000000001" width="160" height="30" as="geometry" />
          </mxCell>
        </object>
        <object label="Date: &lt;font style=&quot;font-size: 17px;&quot;&gt;%date{ddd mmm dd yyyy HH:MM:ss}%&lt;/font&gt;" placeholders="1" id="h7L3MlKvrl_dhOmhB3lf-13">
          <mxCell style="strokeWidth=1;shadow=0;dashed=0;align=center;html=1;shape=mxgraph.mockup.text.textBox;fontColor=#666666;align=left;fontSize=17;spacingLeft=4;spacingTop=-3;whiteSpace=wrap;strokeColor=#333333;mainText=;fillColor=none;fontFamily=Open Sans;movable=1;resizable=1;rotatable=1;deletable=1;editable=1;locked=0;connectable=1;" parent="1" vertex="1">
            <mxGeometry x="2993.15" y="2269.210000000001" width="278.5" height="30" as="geometry" />
          </mxCell>
        </object>
        <object label="&lt;b&gt;Title: %page%&lt;/b&gt;" placeholders="1" id="h7L3MlKvrl_dhOmhB3lf-14">
          <mxCell style="strokeWidth=1;shadow=0;dashed=0;align=center;html=1;shape=mxgraph.mockup.text.textBox;fontColor=#666666;align=left;fontSize=17;spacingLeft=4;spacingTop=-3;whiteSpace=wrap;strokeColor=#333333;mainText=;fillColor=none;fontFamily=Open Sans;movable=1;resizable=1;rotatable=1;deletable=1;editable=1;locked=0;connectable=1;" parent="1" vertex="1">
            <mxGeometry x="2553.15" y="2179.21" width="600" height="30" as="geometry" />
          </mxCell>
        </object>
        <object label="Filename: %filename%" placeholders="1" id="h7L3MlKvrl_dhOmhB3lf-15">
          <mxCell style="strokeWidth=1;shadow=0;dashed=0;align=center;html=1;shape=mxgraph.mockup.text.textBox;fontColor=#666666;align=left;fontSize=17;spacingLeft=4;spacingTop=-3;whiteSpace=wrap;strokeColor=#333333;mainText=;fillColor=none;fontFamily=Open Sans;movable=1;resizable=1;rotatable=1;deletable=1;editable=1;locked=0;connectable=1;" parent="1" vertex="1">
            <mxGeometry x="2553.15" y="2209.210000000001" width="400" height="30" as="geometry" />
          </mxCell>
        </object>
        <object label="&lt;div align=&quot;left&quot;&gt;%description%&lt;/div&gt;" placeholders="1" id="h7L3MlKvrl_dhOmhB3lf-16">
          <mxCell style="strokeWidth=1;shadow=0;dashed=0;html=1;shape=mxgraph.mockup.text.textBox;fontColor=#666666;align=left;verticalAlign=top;fontSize=12;spacingLeft=4;spacingTop=-3;whiteSpace=wrap;strokeColor=#333333;mainText=;fillColor=none;fontFamily=Open Sans;movable=1;resizable=1;rotatable=1;deletable=1;editable=1;locked=0;connectable=1;" parent="1" vertex="1">
            <mxGeometry x="2553.15" y="2089.21" width="718.5" height="90" as="geometry" />
          </mxCell>
        </object>
        <object label="&lt;b&gt;Rev: %rev%&lt;br&gt;&lt;/b&gt;" placeholders="1" id="EyKvBmyPNv_MzgSUc5b6-1">
          <mxCell style="strokeWidth=1;shadow=0;dashed=0;align=center;html=1;shape=mxgraph.mockup.text.textBox;fontColor=#666666;align=left;fontSize=17;spacingLeft=4;spacingTop=-3;whiteSpace=wrap;strokeColor=#333333;mainText=;fillColor=none;fontFamily=Open Sans;movable=1;resizable=1;rotatable=1;deletable=1;editable=1;locked=0;connectable=1;" parent="1" vertex="1">
            <mxGeometry x="3153.15" y="2179.21" width="118.5" height="30" as="geometry" />
          </mxCell>
        </object>
        <object label="&lt;div align=&quot;left&quot;&gt;Size: %size%&lt;/div&gt;" placeholders="1" id="kxruepuoSyuf0zwoeRE9-5">
          <mxCell style="strokeWidth=1;shadow=0;dashed=0;align=left;html=1;shape=mxgraph.mockup.text.textBox;fontColor=#666666;align=left;fontSize=17;spacingLeft=4;spacingTop=-3;whiteSpace=wrap;strokeColor=#333333;mainText=;fillColor=none;fontFamily=Open Sans;movable=1;resizable=1;rotatable=1;deletable=1;editable=1;locked=0;connectable=1;" parent="1" vertex="1">
            <mxGeometry x="3073.15" y="2239.210000000001" width="198.5" height="30" as="geometry" />
          </mxCell>
        </object>
        <object label="&lt;div align=&quot;left&quot;&gt;Scale: %scale%&lt;/div&gt;" placeholders="1" id="kxruepuoSyuf0zwoeRE9-6">
          <mxCell style="strokeWidth=1;shadow=0;dashed=0;align=left;html=1;shape=mxgraph.mockup.text.textBox;fontColor=#666666;align=left;fontSize=17;spacingLeft=4;spacingTop=-3;whiteSpace=wrap;strokeColor=#333333;mainText=;fillColor=none;fontFamily=Open Sans;movable=1;resizable=1;rotatable=1;deletable=1;editable=1;locked=0;connectable=1;" parent="1" vertex="1">
            <mxGeometry x="2953.15" y="2239.210000000001" width="120" height="30" as="geometry" />
          </mxCell>
        </object>
        <object label="Prepared By: %author%" placeholders="1" id="kxruepuoSyuf0zwoeRE9-7">
          <mxCell style="strokeWidth=1;shadow=0;dashed=0;align=center;html=1;shape=mxgraph.mockup.text.textBox;fontColor=#666666;align=left;fontSize=17;spacingLeft=4;spacingTop=-3;whiteSpace=wrap;strokeColor=#333333;mainText=;fillColor=none;fontFamily=Open Sans;movable=1;resizable=1;rotatable=1;deletable=1;editable=1;locked=0;connectable=1;" parent="1" vertex="1">
            <mxGeometry x="2553.15" y="2239.210000000001" width="400" height="30" as="geometry" />
          </mxCell>
        </object>
        <object label="%extra_label% %dwg_no%%part_num%%serial_num%" placeholders="1" id="kxruepuoSyuf0zwoeRE9-8">
          <mxCell style="strokeWidth=1;shadow=0;dashed=0;align=center;html=1;shape=mxgraph.mockup.text.textBox;fontColor=#666666;align=left;fontSize=17;spacingLeft=4;spacingTop=-3;whiteSpace=wrap;strokeColor=#333333;mainText=;fillColor=none;fontFamily=Open Sans;movable=1;resizable=1;rotatable=1;deletable=1;editable=1;locked=0;connectable=1;" parent="1" vertex="1">
            <mxGeometry x="2953.15" y="2209.210000000001" width="318.5" height="30" as="geometry" />
          </mxCell>
        </object>
        <mxCell id="BJZrzUYKFe9HMTDBOYGV-4" value="" style="endArrow=none;html=1;rounded=0;strokeWidth=3;targetPerimeterSpacing=0;movable=1;resizable=1;rotatable=1;deletable=1;editable=1;locked=0;connectable=1;" parent="1" edge="1">
          <mxGeometry width="50" height="50" relative="1" as="geometry">
            <mxPoint x="1655.511811" y="59.11" as="sourcePoint" />
            <mxPoint x="1655.511811" y="19.69" as="targetPoint" />
          </mxGeometry>
        </mxCell>
        <mxCell id="BJZrzUYKFe9HMTDBOYGV-11" value="" style="endArrow=none;html=1;rounded=0;strokeWidth=3;movable=1;resizable=1;rotatable=1;deletable=1;editable=1;locked=0;connectable=1;" parent="1" edge="1">
          <mxGeometry width="50" height="50" relative="1" as="geometry">
            <mxPoint x="19.90000000000001" y="1169.292" as="sourcePoint" />
            <mxPoint x="58.92" y="1169.292" as="targetPoint" />
          </mxGeometry>
        </mxCell>
        <mxCell id="BJZrzUYKFe9HMTDBOYGV-27" value="" style="endArrow=none;html=1;rounded=0;movable=1;resizable=1;rotatable=1;deletable=1;editable=1;locked=0;connectable=1;" parent="1" edge="1">
          <mxGeometry width="50" height="50" relative="1" as="geometry">
            <mxPoint x="1852.3700000000001" y="39.69" as="sourcePoint" />
            <mxPoint x="1852.3700000000001" y="19.689999999999994" as="targetPoint" />
          </mxGeometry>
        </mxCell>
        <mxCell id="BJZrzUYKFe9HMTDBOYGV-34" value="" style="endArrow=none;html=1;rounded=0;movable=1;resizable=1;rotatable=1;deletable=1;editable=1;locked=0;connectable=1;" parent="1" edge="1">
          <mxGeometry width="50" height="50" relative="1" as="geometry">
            <mxPoint x="2049.2225" y="39.69" as="sourcePoint" />
            <mxPoint x="2049.2225" y="19.689999999999994" as="targetPoint" />
          </mxGeometry>
        </mxCell>
        <mxCell id="BJZrzUYKFe9HMTDBOYGV-35" value="" style="endArrow=none;html=1;rounded=0;movable=1;resizable=1;rotatable=1;deletable=1;editable=1;locked=0;connectable=1;" parent="1" edge="1">
          <mxGeometry width="50" height="50" relative="1" as="geometry">
            <mxPoint x="1458.665" y="39.69" as="sourcePoint" />
            <mxPoint x="1458.665" y="19.689999999999994" as="targetPoint" />
          </mxGeometry>
        </mxCell>
        <mxCell id="BJZrzUYKFe9HMTDBOYGV-36" value="" style="endArrow=none;html=1;rounded=0;movable=1;resizable=1;rotatable=1;deletable=1;editable=1;locked=0;connectable=1;" parent="1" edge="1">
          <mxGeometry width="50" height="50" relative="1" as="geometry">
            <mxPoint x="1261.8174999999999" y="39.69" as="sourcePoint" />
            <mxPoint x="1261.8174999999999" y="19.689999999999994" as="targetPoint" />
          </mxGeometry>
        </mxCell>
        <mxCell id="BJZrzUYKFe9HMTDBOYGV-45" value="" style="endArrow=none;html=1;rounded=0;movable=1;resizable=1;rotatable=1;deletable=1;editable=1;locked=0;connectable=1;" parent="1" edge="1">
          <mxGeometry width="50" height="50" relative="1" as="geometry">
            <mxPoint x="19.71000000000001" y="972.6399999999999" as="sourcePoint" />
            <mxPoint x="39.76000000000001" y="972.6399999999999" as="targetPoint" />
          </mxGeometry>
        </mxCell>
        <mxCell id="BJZrzUYKFe9HMTDBOYGV-46" value="" style="endArrow=none;html=1;rounded=0;movable=1;resizable=1;rotatable=1;deletable=1;editable=1;locked=0;connectable=1;" parent="1" edge="1">
          <mxGeometry width="50" height="50" relative="1" as="geometry">
            <mxPoint x="19.70250000000002" y="1366.3424999999997" as="sourcePoint" />
            <mxPoint x="39.75250000000001" y="1366.3424999999997" as="targetPoint" />
          </mxGeometry>
        </mxCell>
        <mxCell id="BJZrzUYKFe9HMTDBOYGV-49" value="E" style="text;html=1;strokeColor=none;fillColor=none;align=center;verticalAlign=middle;whiteSpace=wrap;rounded=0;fontFamily=Open Sans;fontSize=18;movable=1;resizable=1;rotatable=1;deletable=1;editable=1;locked=0;connectable=1;" parent="1" vertex="1">
          <mxGeometry x="19.680000000000003" y="864.3699999999999" width="19.685" height="19.685" as="geometry" />
        </mxCell>
        <mxCell id="BJZrzUYKFe9HMTDBOYGV-52" value="F" style="text;html=1;strokeColor=none;fillColor=none;align=center;verticalAlign=middle;whiteSpace=wrap;rounded=0;fontFamily=Open Sans;fontSize=18;movable=1;resizable=1;rotatable=1;deletable=1;editable=1;locked=0;connectable=1;" parent="1" vertex="1">
          <mxGeometry x="19.682499999999997" y="1061.2224999999999" width="19.685" height="19.685" as="geometry" />
        </mxCell>
        <mxCell id="BJZrzUYKFe9HMTDBOYGV-53" value="G" style="text;html=1;strokeColor=none;fillColor=none;align=center;verticalAlign=middle;whiteSpace=wrap;rounded=0;fontFamily=Open Sans;fontSize=18;movable=1;resizable=1;rotatable=1;deletable=1;editable=1;locked=0;connectable=1;" parent="1" vertex="1">
          <mxGeometry x="19.875000000000004" y="1258.0749999999996" width="19.685" height="19.685" as="geometry" />
        </mxCell>
        <mxCell id="BJZrzUYKFe9HMTDBOYGV-54" value="H" style="text;html=1;strokeColor=none;fillColor=none;align=center;verticalAlign=middle;whiteSpace=wrap;rounded=0;fontFamily=Open Sans;fontSize=18;movable=1;resizable=1;rotatable=1;deletable=1;editable=1;locked=0;connectable=1;" parent="1" vertex="1">
          <mxGeometry x="19.8775" y="1454.9199999999998" width="19.685" height="19.685" as="geometry" />
        </mxCell>
        <mxCell id="BJZrzUYKFe9HMTDBOYGV-59" value="6" style="text;html=1;strokeColor=none;fillColor=none;align=center;verticalAlign=middle;whiteSpace=wrap;rounded=0;fontFamily=Open Sans;fontSize=18;movable=1;resizable=1;rotatable=1;deletable=1;editable=1;locked=0;connectable=1;" parent="1" vertex="1">
          <mxGeometry x="1153.5525" y="19.852500000000003" width="19.685" height="19.685" as="geometry" />
        </mxCell>
        <mxCell id="BJZrzUYKFe9HMTDBOYGV-60" value="7" style="text;html=1;strokeColor=none;fillColor=none;align=center;verticalAlign=middle;whiteSpace=wrap;rounded=0;fontFamily=Open Sans;fontSize=18;movable=1;resizable=1;rotatable=1;deletable=1;editable=1;locked=0;connectable=1;" parent="1" vertex="1">
          <mxGeometry x="1350.405" y="19.855" width="19.685" height="19.685" as="geometry" />
        </mxCell>
        <mxCell id="BJZrzUYKFe9HMTDBOYGV-61" value="8" style="text;html=1;strokeColor=none;fillColor=none;align=center;verticalAlign=middle;whiteSpace=wrap;rounded=0;fontFamily=Open Sans;fontSize=18;movable=1;resizable=1;rotatable=1;deletable=1;editable=1;locked=0;connectable=1;" parent="1" vertex="1">
          <mxGeometry x="1547.2475000000002" y="19.847500000000007" width="19.685" height="19.685" as="geometry" />
        </mxCell>
        <mxCell id="BJZrzUYKFe9HMTDBOYGV-62" value="9" style="text;html=1;strokeColor=none;fillColor=none;align=center;verticalAlign=middle;whiteSpace=wrap;rounded=0;fontFamily=Open Sans;fontSize=18;movable=1;resizable=1;rotatable=1;deletable=1;editable=1;locked=0;connectable=1;" parent="1" vertex="1">
          <mxGeometry x="1744.1000000000001" y="19.84999999999999" width="19.685" height="19.685" as="geometry" />
        </mxCell>
        <mxCell id="BJZrzUYKFe9HMTDBOYGV-63" value="10" style="text;html=1;strokeColor=none;fillColor=none;align=center;verticalAlign=middle;whiteSpace=wrap;rounded=0;fontFamily=Open Sans;fontSize=18;movable=1;resizable=1;rotatable=1;deletable=1;editable=1;locked=0;connectable=1;" parent="1" vertex="1">
          <mxGeometry x="1940.9524999999999" y="19.842499999999998" width="19.685" height="19.685" as="geometry" />
        </mxCell>
        <mxCell id="BJZrzUYKFe9HMTDBOYGV-64" value="11" style="text;html=1;strokeColor=none;fillColor=none;align=center;verticalAlign=middle;whiteSpace=wrap;rounded=0;fontFamily=Open Sans;fontSize=18;movable=1;resizable=1;rotatable=1;deletable=1;editable=1;locked=0;connectable=1;" parent="1" vertex="1">
          <mxGeometry x="2137.795" y="19.84500000000001" width="19.685" height="19.685" as="geometry" />
        </mxCell>
        <mxCell id="EybZttDDo1FT70o5lfqI-4" value="" style="endArrow=none;html=1;rounded=0;movable=1;resizable=1;rotatable=1;deletable=1;editable=1;locked=0;connectable=1;" parent="1" edge="1">
          <mxGeometry width="50" height="50" relative="1" as="geometry">
            <mxPoint x="1064.9699999999998" y="39.6825" as="sourcePoint" />
            <mxPoint x="1064.9699999999998" y="19.682499999999994" as="targetPoint" />
          </mxGeometry>
        </mxCell>
        <mxCell id="EybZttDDo1FT70o5lfqI-5" value="5" style="text;html=1;strokeColor=none;fillColor=none;align=center;verticalAlign=middle;whiteSpace=wrap;rounded=0;fontFamily=Open Sans;fontSize=18;movable=1;resizable=1;rotatable=1;deletable=1;editable=1;locked=0;connectable=1;" parent="1" vertex="1">
          <mxGeometry x="956.7049999999999" y="19.845000000000002" width="19.685" height="19.685" as="geometry" />
        </mxCell>
        <mxCell id="EybZttDDo1FT70o5lfqI-6" value="" style="endArrow=none;html=1;rounded=0;movable=1;resizable=1;rotatable=1;deletable=1;editable=1;locked=0;connectable=1;" parent="1" edge="1">
          <mxGeometry width="50" height="50" relative="1" as="geometry">
            <mxPoint x="2246.075" y="39.6825" as="sourcePoint" />
            <mxPoint x="2246.075" y="19.682499999999994" as="targetPoint" />
          </mxGeometry>
        </mxCell>
        <mxCell id="EybZttDDo1FT70o5lfqI-7" value="12" style="text;html=1;strokeColor=none;fillColor=none;align=center;verticalAlign=middle;whiteSpace=wrap;rounded=0;fontFamily=Open Sans;fontSize=18;movable=1;resizable=1;rotatable=1;deletable=1;editable=1;locked=0;connectable=1;" parent="1" vertex="1">
          <mxGeometry x="2334.6475" y="19.83750000000001" width="19.685" height="19.685" as="geometry" />
        </mxCell>
        <mxCell id="EybZttDDo1FT70o5lfqI-23" value="" style="endArrow=none;html=1;rounded=0;movable=1;resizable=1;rotatable=1;deletable=1;editable=1;locked=0;connectable=1;" parent="1" edge="1">
          <mxGeometry width="50" height="50" relative="1" as="geometry">
            <mxPoint x="19.68850000000001" y="775.7885" as="sourcePoint" />
            <mxPoint x="39.73850000000001" y="775.7885" as="targetPoint" />
          </mxGeometry>
        </mxCell>
        <mxCell id="EybZttDDo1FT70o5lfqI-24" value="D" style="text;html=1;strokeColor=none;fillColor=none;align=center;verticalAlign=middle;whiteSpace=wrap;rounded=0;fontFamily=Open Sans;fontSize=18;movable=1;resizable=1;rotatable=1;deletable=1;editable=1;locked=0;connectable=1;" parent="1" vertex="1">
          <mxGeometry x="19.8685" y="667.5185" width="19.685" height="19.685" as="geometry" />
        </mxCell>
        <mxCell id="EybZttDDo1FT70o5lfqI-25" value="" style="endArrow=none;html=1;rounded=0;movable=1;resizable=1;rotatable=1;deletable=1;editable=1;locked=0;connectable=1;" parent="1" edge="1">
          <mxGeometry width="50" height="50" relative="1" as="geometry">
            <mxPoint x="19.70100000000002" y="1563.1809999999998" as="sourcePoint" />
            <mxPoint x="39.75100000000001" y="1563.1809999999998" as="targetPoint" />
          </mxGeometry>
        </mxCell>
        <mxCell id="EybZttDDo1FT70o5lfqI-26" value="J" style="text;html=1;strokeColor=none;fillColor=none;align=center;verticalAlign=middle;whiteSpace=wrap;rounded=0;fontFamily=Open Sans;fontSize=18;movable=1;resizable=1;rotatable=1;deletable=1;editable=1;locked=0;connectable=1;" parent="1" vertex="1">
          <mxGeometry x="19.876" y="1651.7584999999997" width="19.685" height="19.685" as="geometry" />
        </mxCell>
        <mxCell id="EybZttDDo1FT70o5lfqI-41" value="" style="endArrow=none;html=1;rounded=0;movable=1;resizable=1;rotatable=1;deletable=1;editable=1;locked=0;connectable=1;" parent="1" edge="1">
          <mxGeometry width="50" height="50" relative="1" as="geometry">
            <mxPoint x="868.117" y="39.6995" as="sourcePoint" />
            <mxPoint x="868.117" y="19.699499999999993" as="targetPoint" />
          </mxGeometry>
        </mxCell>
        <mxCell id="EybZttDDo1FT70o5lfqI-42" value="4" style="text;html=1;strokeColor=none;fillColor=none;align=center;verticalAlign=middle;whiteSpace=wrap;rounded=0;fontFamily=Open Sans;fontSize=18;movable=1;resizable=1;rotatable=1;deletable=1;editable=1;locked=0;connectable=1;" parent="1" vertex="1">
          <mxGeometry x="759.8520000000001" y="19.862000000000002" width="19.685" height="19.685" as="geometry" />
        </mxCell>
        <mxCell id="EybZttDDo1FT70o5lfqI-43" value="" style="endArrow=none;html=1;rounded=0;movable=1;resizable=1;rotatable=1;deletable=1;editable=1;locked=0;connectable=1;" parent="1" edge="1">
          <mxGeometry width="50" height="50" relative="1" as="geometry">
            <mxPoint x="671.2654999999999" y="39.708" as="sourcePoint" />
            <mxPoint x="671.2654999999999" y="19.70799999999999" as="targetPoint" />
          </mxGeometry>
        </mxCell>
        <mxCell id="EybZttDDo1FT70o5lfqI-44" value="3" style="text;html=1;strokeColor=none;fillColor=none;align=center;verticalAlign=middle;whiteSpace=wrap;rounded=0;fontFamily=Open Sans;fontSize=18;movable=1;resizable=1;rotatable=1;deletable=1;editable=1;locked=0;connectable=1;" parent="1" vertex="1">
          <mxGeometry x="563.0005" y="19.8705" width="19.685" height="19.685" as="geometry" />
        </mxCell>
        <mxCell id="EybZttDDo1FT70o5lfqI-45" value="" style="endArrow=none;html=1;rounded=0;movable=1;resizable=1;rotatable=1;deletable=1;editable=1;locked=0;connectable=1;" parent="1" edge="1">
          <mxGeometry width="50" height="50" relative="1" as="geometry">
            <mxPoint x="2442.9235" y="39.681" as="sourcePoint" />
            <mxPoint x="2442.9235" y="19.68099999999999" as="targetPoint" />
          </mxGeometry>
        </mxCell>
        <mxCell id="EybZttDDo1FT70o5lfqI-46" value="13" style="text;html=1;strokeColor=none;fillColor=none;align=center;verticalAlign=middle;whiteSpace=wrap;rounded=0;fontFamily=Open Sans;fontSize=18;movable=1;resizable=1;rotatable=1;deletable=1;editable=1;locked=0;connectable=1;" parent="1" vertex="1">
          <mxGeometry x="2531.4959999999996" y="19.836000000000006" width="19.685" height="19.685" as="geometry" />
        </mxCell>
        <mxCell id="EybZttDDo1FT70o5lfqI-47" value="" style="endArrow=none;html=1;rounded=0;movable=1;resizable=1;rotatable=1;deletable=1;editable=1;locked=0;connectable=1;" parent="1" edge="1">
          <mxGeometry width="50" height="50" relative="1" as="geometry">
            <mxPoint x="2639.7719999999995" y="39.689499999999995" as="sourcePoint" />
            <mxPoint x="2639.7719999999995" y="19.689499999999995" as="targetPoint" />
          </mxGeometry>
        </mxCell>
        <mxCell id="EybZttDDo1FT70o5lfqI-48" value="14" style="text;html=1;strokeColor=none;fillColor=none;align=center;verticalAlign=middle;whiteSpace=wrap;rounded=0;fontFamily=Open Sans;fontSize=18;movable=1;resizable=1;rotatable=1;deletable=1;editable=1;locked=0;connectable=1;" parent="1" vertex="1">
          <mxGeometry x="2728.3444999999997" y="19.84450000000001" width="19.685" height="19.685" as="geometry" />
        </mxCell>
        <mxCell id="EybZttDDo1FT70o5lfqI-95" value="" style="endArrow=none;html=1;rounded=0;movable=1;resizable=1;rotatable=1;deletable=1;editable=1;locked=0;connectable=1;" parent="1" edge="1">
          <mxGeometry width="50" height="50" relative="1" as="geometry">
            <mxPoint x="19.707000000000008" y="578.7470000000001" as="sourcePoint" />
            <mxPoint x="39.757000000000005" y="578.7470000000001" as="targetPoint" />
          </mxGeometry>
        </mxCell>
        <mxCell id="EybZttDDo1FT70o5lfqI-96" value="C" style="text;html=1;strokeColor=none;fillColor=none;align=center;verticalAlign=middle;whiteSpace=wrap;rounded=0;fontFamily=Open Sans;fontSize=18;movable=1;resizable=1;rotatable=1;deletable=1;editable=1;locked=0;connectable=1;" parent="1" vertex="1">
          <mxGeometry x="19.687" y="470.47700000000003" width="19.685" height="19.685" as="geometry" />
        </mxCell>
        <mxCell id="EybZttDDo1FT70o5lfqI-99" value="" style="endArrow=none;html=1;rounded=0;movable=1;resizable=1;rotatable=1;deletable=1;editable=1;locked=0;connectable=1;" parent="1" edge="1">
          <mxGeometry width="50" height="50" relative="1" as="geometry">
            <mxPoint x="19.499500000000015" y="1759.8394999999998" as="sourcePoint" />
            <mxPoint x="39.54950000000001" y="1759.8394999999998" as="targetPoint" />
          </mxGeometry>
        </mxCell>
        <mxCell id="EybZttDDo1FT70o5lfqI-100" value="K" style="text;html=1;strokeColor=none;fillColor=none;align=center;verticalAlign=middle;whiteSpace=wrap;rounded=0;fontFamily=Open Sans;fontSize=18;movable=1;resizable=1;rotatable=1;deletable=1;editable=1;locked=0;connectable=1;" parent="1" vertex="1">
          <mxGeometry x="19.6645" y="1848.4169999999997" width="19.685" height="19.685" as="geometry" />
        </mxCell>
        <mxCell id="WRUKcF40E02Dc5NdgmoT-4" value="" style="endArrow=none;html=1;rounded=0;movable=1;resizable=1;rotatable=1;deletable=1;editable=1;locked=0;connectable=1;" edge="1" parent="1">
          <mxGeometry width="50" height="50" relative="1" as="geometry">
            <mxPoint x="474.4124999999997" y="39.665" as="sourcePoint" />
            <mxPoint x="474.4124999999997" y="19.664999999999992" as="targetPoint" />
          </mxGeometry>
        </mxCell>
        <mxCell id="WRUKcF40E02Dc5NdgmoT-5" value="2" style="text;html=1;strokeColor=none;fillColor=none;align=center;verticalAlign=middle;whiteSpace=wrap;rounded=0;fontFamily=Open Sans;fontSize=18;movable=1;resizable=1;rotatable=1;deletable=1;editable=1;locked=0;connectable=1;" vertex="1" parent="1">
          <mxGeometry x="366.1474999999998" y="19.8275" width="19.685" height="19.685" as="geometry" />
        </mxCell>
        <mxCell id="WRUKcF40E02Dc5NdgmoT-6" value="" style="endArrow=none;html=1;rounded=0;movable=1;resizable=1;rotatable=1;deletable=1;editable=1;locked=0;connectable=1;" edge="1" parent="1">
          <mxGeometry width="50" height="50" relative="1" as="geometry">
            <mxPoint x="277.55949999999984" y="39.682" as="sourcePoint" />
            <mxPoint x="277.55949999999984" y="19.681999999999995" as="targetPoint" />
          </mxGeometry>
        </mxCell>
        <mxCell id="WRUKcF40E02Dc5NdgmoT-7" value="1" style="text;html=1;strokeColor=none;fillColor=none;align=center;verticalAlign=middle;whiteSpace=wrap;rounded=0;fontFamily=Open Sans;fontSize=18;movable=1;resizable=1;rotatable=1;deletable=1;editable=1;locked=0;connectable=1;" vertex="1" parent="1">
          <mxGeometry x="169.29449999999997" y="19.844500000000004" width="19.685" height="19.685" as="geometry" />
        </mxCell>
        <mxCell id="WRUKcF40E02Dc5NdgmoT-28" value="" style="endArrow=none;html=1;rounded=0;movable=1;resizable=1;rotatable=1;deletable=1;editable=1;locked=0;connectable=1;" edge="1" parent="1">
          <mxGeometry width="50" height="50" relative="1" as="geometry">
            <mxPoint x="2836.6105" y="39.66799999999999" as="sourcePoint" />
            <mxPoint x="2836.6105" y="19.667999999999992" as="targetPoint" />
          </mxGeometry>
        </mxCell>
        <mxCell id="WRUKcF40E02Dc5NdgmoT-29" value="15" style="text;html=1;strokeColor=none;fillColor=none;align=center;verticalAlign=middle;whiteSpace=wrap;rounded=0;fontFamily=Open Sans;fontSize=18;movable=1;resizable=1;rotatable=1;deletable=1;editable=1;locked=0;connectable=1;" vertex="1" parent="1">
          <mxGeometry x="2925.183" y="19.823000000000008" width="19.685" height="19.685" as="geometry" />
        </mxCell>
        <mxCell id="WRUKcF40E02Dc5NdgmoT-30" value="" style="endArrow=none;html=1;rounded=0;movable=1;resizable=1;rotatable=1;deletable=1;editable=1;locked=0;connectable=1;" edge="1" parent="1">
          <mxGeometry width="50" height="50" relative="1" as="geometry">
            <mxPoint x="3033.459" y="39.6665" as="sourcePoint" />
            <mxPoint x="3033.459" y="19.666499999999992" as="targetPoint" />
          </mxGeometry>
        </mxCell>
        <mxCell id="WRUKcF40E02Dc5NdgmoT-31" value="16" style="text;html=1;strokeColor=none;fillColor=none;align=center;verticalAlign=middle;whiteSpace=wrap;rounded=0;fontFamily=Open Sans;fontSize=18;movable=1;resizable=1;rotatable=1;deletable=1;editable=1;locked=0;connectable=1;" vertex="1" parent="1">
          <mxGeometry x="3122.0314999999996" y="19.821500000000007" width="19.685" height="19.685" as="geometry" />
        </mxCell>
        <mxCell id="WRUKcF40E02Dc5NdgmoT-34" value="" style="endArrow=none;html=1;rounded=0;strokeWidth=3;targetPerimeterSpacing=0;movable=1;resizable=1;rotatable=1;deletable=1;editable=1;locked=0;connectable=1;" edge="1" parent="1">
          <mxGeometry width="50" height="50" relative="1" as="geometry">
            <mxPoint x="1655.511811" y="2318.8885" as="sourcePoint" />
            <mxPoint x="1655.511811" y="2279.3" as="targetPoint" />
          </mxGeometry>
        </mxCell>
        <mxCell id="WRUKcF40E02Dc5NdgmoT-35" value="" style="endArrow=none;html=1;rounded=0;movable=1;resizable=1;rotatable=1;deletable=1;editable=1;locked=0;connectable=1;" edge="1" parent="1">
          <mxGeometry width="50" height="50" relative="1" as="geometry">
            <mxPoint x="1852.3685" y="2319.2285" as="sourcePoint" />
            <mxPoint x="1852.3685" y="2299.2285" as="targetPoint" />
          </mxGeometry>
        </mxCell>
        <mxCell id="WRUKcF40E02Dc5NdgmoT-36" value="" style="endArrow=none;html=1;rounded=0;movable=1;resizable=1;rotatable=1;deletable=1;editable=1;locked=0;connectable=1;" edge="1" parent="1">
          <mxGeometry width="50" height="50" relative="1" as="geometry">
            <mxPoint x="2049.2209999999995" y="2319.2285" as="sourcePoint" />
            <mxPoint x="2049.2209999999995" y="2299.2285" as="targetPoint" />
          </mxGeometry>
        </mxCell>
        <mxCell id="WRUKcF40E02Dc5NdgmoT-37" value="" style="endArrow=none;html=1;rounded=0;movable=1;resizable=1;rotatable=1;deletable=1;editable=1;locked=0;connectable=1;" edge="1" parent="1">
          <mxGeometry width="50" height="50" relative="1" as="geometry">
            <mxPoint x="1458.6634999999999" y="2319.2285" as="sourcePoint" />
            <mxPoint x="1458.6634999999999" y="2299.2285" as="targetPoint" />
          </mxGeometry>
        </mxCell>
        <mxCell id="WRUKcF40E02Dc5NdgmoT-38" value="" style="endArrow=none;html=1;rounded=0;movable=1;resizable=1;rotatable=1;deletable=1;editable=1;locked=0;connectable=1;" edge="1" parent="1">
          <mxGeometry width="50" height="50" relative="1" as="geometry">
            <mxPoint x="1261.8159999999998" y="2319.2285" as="sourcePoint" />
            <mxPoint x="1261.8159999999998" y="2299.2285" as="targetPoint" />
          </mxGeometry>
        </mxCell>
        <mxCell id="WRUKcF40E02Dc5NdgmoT-39" value="6" style="text;html=1;strokeColor=none;fillColor=none;align=center;verticalAlign=middle;whiteSpace=wrap;rounded=0;fontFamily=Open Sans;fontSize=18;movable=1;resizable=1;rotatable=1;deletable=1;editable=1;locked=0;connectable=1;" vertex="1" parent="1">
          <mxGeometry x="1153.551" y="2299.391" width="19.685" height="19.685" as="geometry" />
        </mxCell>
        <mxCell id="WRUKcF40E02Dc5NdgmoT-40" value="7" style="text;html=1;strokeColor=none;fillColor=none;align=center;verticalAlign=middle;whiteSpace=wrap;rounded=0;fontFamily=Open Sans;fontSize=18;movable=1;resizable=1;rotatable=1;deletable=1;editable=1;locked=0;connectable=1;" vertex="1" parent="1">
          <mxGeometry x="1350.4035" y="2299.3935" width="19.685" height="19.685" as="geometry" />
        </mxCell>
        <mxCell id="WRUKcF40E02Dc5NdgmoT-41" value="8" style="text;html=1;strokeColor=none;fillColor=none;align=center;verticalAlign=middle;whiteSpace=wrap;rounded=0;fontFamily=Open Sans;fontSize=18;movable=1;resizable=1;rotatable=1;deletable=1;editable=1;locked=0;connectable=1;" vertex="1" parent="1">
          <mxGeometry x="1547.246" y="2299.386" width="19.685" height="19.685" as="geometry" />
        </mxCell>
        <mxCell id="WRUKcF40E02Dc5NdgmoT-42" value="9" style="text;html=1;strokeColor=none;fillColor=none;align=center;verticalAlign=middle;whiteSpace=wrap;rounded=0;fontFamily=Open Sans;fontSize=18;movable=1;resizable=1;rotatable=1;deletable=1;editable=1;locked=0;connectable=1;" vertex="1" parent="1">
          <mxGeometry x="1744.0985" y="2299.3885" width="19.685" height="19.685" as="geometry" />
        </mxCell>
        <mxCell id="WRUKcF40E02Dc5NdgmoT-43" value="10" style="text;html=1;strokeColor=none;fillColor=none;align=center;verticalAlign=middle;whiteSpace=wrap;rounded=0;fontFamily=Open Sans;fontSize=18;movable=1;resizable=1;rotatable=1;deletable=1;editable=1;locked=0;connectable=1;" vertex="1" parent="1">
          <mxGeometry x="1940.9509999999998" y="2299.3810000000003" width="19.685" height="19.685" as="geometry" />
        </mxCell>
        <mxCell id="WRUKcF40E02Dc5NdgmoT-44" value="11" style="text;html=1;strokeColor=none;fillColor=none;align=center;verticalAlign=middle;whiteSpace=wrap;rounded=0;fontFamily=Open Sans;fontSize=18;movable=1;resizable=1;rotatable=1;deletable=1;editable=1;locked=0;connectable=1;" vertex="1" parent="1">
          <mxGeometry x="2137.7934999999998" y="2299.3835000000004" width="19.685" height="19.685" as="geometry" />
        </mxCell>
        <mxCell id="WRUKcF40E02Dc5NdgmoT-45" value="" style="endArrow=none;html=1;rounded=0;movable=1;resizable=1;rotatable=1;deletable=1;editable=1;locked=0;connectable=1;" edge="1" parent="1">
          <mxGeometry width="50" height="50" relative="1" as="geometry">
            <mxPoint x="1064.9684999999997" y="2319.221" as="sourcePoint" />
            <mxPoint x="1064.9684999999997" y="2299.221" as="targetPoint" />
          </mxGeometry>
        </mxCell>
        <mxCell id="WRUKcF40E02Dc5NdgmoT-46" value="5" style="text;html=1;strokeColor=none;fillColor=none;align=center;verticalAlign=middle;whiteSpace=wrap;rounded=0;fontFamily=Open Sans;fontSize=18;movable=1;resizable=1;rotatable=1;deletable=1;editable=1;locked=0;connectable=1;" vertex="1" parent="1">
          <mxGeometry x="956.7034999999998" y="2299.3835000000004" width="19.685" height="19.685" as="geometry" />
        </mxCell>
        <mxCell id="WRUKcF40E02Dc5NdgmoT-47" value="" style="endArrow=none;html=1;rounded=0;movable=1;resizable=1;rotatable=1;deletable=1;editable=1;locked=0;connectable=1;" edge="1" parent="1">
          <mxGeometry width="50" height="50" relative="1" as="geometry">
            <mxPoint x="2246.0734999999995" y="2319.221" as="sourcePoint" />
            <mxPoint x="2246.0734999999995" y="2299.221" as="targetPoint" />
          </mxGeometry>
        </mxCell>
        <mxCell id="WRUKcF40E02Dc5NdgmoT-48" value="12" style="text;html=1;strokeColor=none;fillColor=none;align=center;verticalAlign=middle;whiteSpace=wrap;rounded=0;fontFamily=Open Sans;fontSize=18;movable=1;resizable=1;rotatable=1;deletable=1;editable=1;locked=0;connectable=1;" vertex="1" parent="1">
          <mxGeometry x="2334.6459999999997" y="2299.376" width="19.685" height="19.685" as="geometry" />
        </mxCell>
        <mxCell id="WRUKcF40E02Dc5NdgmoT-49" value="" style="endArrow=none;html=1;rounded=0;movable=1;resizable=1;rotatable=1;deletable=1;editable=1;locked=0;connectable=1;" edge="1" parent="1">
          <mxGeometry width="50" height="50" relative="1" as="geometry">
            <mxPoint x="868.1154999999999" y="2319.2380000000003" as="sourcePoint" />
            <mxPoint x="868.1154999999999" y="2299.2380000000003" as="targetPoint" />
          </mxGeometry>
        </mxCell>
        <mxCell id="WRUKcF40E02Dc5NdgmoT-50" value="4" style="text;html=1;strokeColor=none;fillColor=none;align=center;verticalAlign=middle;whiteSpace=wrap;rounded=0;fontFamily=Open Sans;fontSize=18;movable=1;resizable=1;rotatable=1;deletable=1;editable=1;locked=0;connectable=1;" vertex="1" parent="1">
          <mxGeometry x="759.8505" y="2299.4005" width="19.685" height="19.685" as="geometry" />
        </mxCell>
        <mxCell id="WRUKcF40E02Dc5NdgmoT-51" value="" style="endArrow=none;html=1;rounded=0;movable=1;resizable=1;rotatable=1;deletable=1;editable=1;locked=0;connectable=1;" edge="1" parent="1">
          <mxGeometry width="50" height="50" relative="1" as="geometry">
            <mxPoint x="671.2639999999998" y="2319.2465" as="sourcePoint" />
            <mxPoint x="671.2639999999998" y="2299.2465" as="targetPoint" />
          </mxGeometry>
        </mxCell>
        <mxCell id="WRUKcF40E02Dc5NdgmoT-52" value="3" style="text;html=1;strokeColor=none;fillColor=none;align=center;verticalAlign=middle;whiteSpace=wrap;rounded=0;fontFamily=Open Sans;fontSize=18;movable=1;resizable=1;rotatable=1;deletable=1;editable=1;locked=0;connectable=1;" vertex="1" parent="1">
          <mxGeometry x="562.9989999999999" y="2299.409" width="19.685" height="19.685" as="geometry" />
        </mxCell>
        <mxCell id="WRUKcF40E02Dc5NdgmoT-53" value="" style="endArrow=none;html=1;rounded=0;movable=1;resizable=1;rotatable=1;deletable=1;editable=1;locked=0;connectable=1;" edge="1" parent="1">
          <mxGeometry width="50" height="50" relative="1" as="geometry">
            <mxPoint x="2442.9219999999996" y="2319.2195" as="sourcePoint" />
            <mxPoint x="2442.9219999999996" y="2299.2195" as="targetPoint" />
          </mxGeometry>
        </mxCell>
        <mxCell id="WRUKcF40E02Dc5NdgmoT-54" value="13" style="text;html=1;strokeColor=none;fillColor=none;align=center;verticalAlign=middle;whiteSpace=wrap;rounded=0;fontFamily=Open Sans;fontSize=18;movable=1;resizable=1;rotatable=1;deletable=1;editable=1;locked=0;connectable=1;" vertex="1" parent="1">
          <mxGeometry x="2531.4944999999993" y="2299.3745000000004" width="19.685" height="19.685" as="geometry" />
        </mxCell>
        <mxCell id="WRUKcF40E02Dc5NdgmoT-55" value="" style="endArrow=none;html=1;rounded=0;movable=1;resizable=1;rotatable=1;deletable=1;editable=1;locked=0;connectable=1;" edge="1" parent="1">
          <mxGeometry width="50" height="50" relative="1" as="geometry">
            <mxPoint x="2639.770499999999" y="2319.228" as="sourcePoint" />
            <mxPoint x="2639.770499999999" y="2299.228" as="targetPoint" />
          </mxGeometry>
        </mxCell>
        <mxCell id="WRUKcF40E02Dc5NdgmoT-56" value="14" style="text;html=1;strokeColor=none;fillColor=none;align=center;verticalAlign=middle;whiteSpace=wrap;rounded=0;fontFamily=Open Sans;fontSize=18;movable=1;resizable=1;rotatable=1;deletable=1;editable=1;locked=0;connectable=1;" vertex="1" parent="1">
          <mxGeometry x="2728.3429999999994" y="2299.3830000000003" width="19.685" height="19.685" as="geometry" />
        </mxCell>
        <mxCell id="WRUKcF40E02Dc5NdgmoT-57" value="" style="endArrow=none;html=1;rounded=0;movable=1;resizable=1;rotatable=1;deletable=1;editable=1;locked=0;connectable=1;" edge="1" parent="1">
          <mxGeometry width="50" height="50" relative="1" as="geometry">
            <mxPoint x="474.4109999999997" y="2319.2035" as="sourcePoint" />
            <mxPoint x="474.4109999999997" y="2299.2035" as="targetPoint" />
          </mxGeometry>
        </mxCell>
        <mxCell id="WRUKcF40E02Dc5NdgmoT-58" value="2" style="text;html=1;strokeColor=none;fillColor=none;align=center;verticalAlign=middle;whiteSpace=wrap;rounded=0;fontFamily=Open Sans;fontSize=18;movable=1;resizable=1;rotatable=1;deletable=1;editable=1;locked=0;connectable=1;" vertex="1" parent="1">
          <mxGeometry x="366.14599999999984" y="2299.366" width="19.685" height="19.685" as="geometry" />
        </mxCell>
        <mxCell id="WRUKcF40E02Dc5NdgmoT-59" value="" style="endArrow=none;html=1;rounded=0;movable=1;resizable=1;rotatable=1;deletable=1;editable=1;locked=0;connectable=1;" edge="1" parent="1">
          <mxGeometry width="50" height="50" relative="1" as="geometry">
            <mxPoint x="277.5579999999999" y="2319.2205000000004" as="sourcePoint" />
            <mxPoint x="277.5579999999999" y="2299.2205000000004" as="targetPoint" />
          </mxGeometry>
        </mxCell>
        <mxCell id="WRUKcF40E02Dc5NdgmoT-60" value="1" style="text;html=1;strokeColor=none;fillColor=none;align=center;verticalAlign=middle;whiteSpace=wrap;rounded=0;fontFamily=Open Sans;fontSize=18;movable=1;resizable=1;rotatable=1;deletable=1;editable=1;locked=0;connectable=1;" vertex="1" parent="1">
          <mxGeometry x="169.29299999999998" y="2299.3830000000003" width="19.685" height="19.685" as="geometry" />
        </mxCell>
        <mxCell id="WRUKcF40E02Dc5NdgmoT-61" value="" style="endArrow=none;html=1;rounded=0;movable=1;resizable=1;rotatable=1;deletable=1;editable=1;locked=0;connectable=1;" edge="1" parent="1">
          <mxGeometry width="50" height="50" relative="1" as="geometry">
            <mxPoint x="2836.6089999999995" y="2319.2065000000002" as="sourcePoint" />
            <mxPoint x="2836.6089999999995" y="2299.2065000000002" as="targetPoint" />
          </mxGeometry>
        </mxCell>
        <mxCell id="WRUKcF40E02Dc5NdgmoT-62" value="15" style="text;html=1;strokeColor=none;fillColor=none;align=center;verticalAlign=middle;whiteSpace=wrap;rounded=0;fontFamily=Open Sans;fontSize=18;movable=1;resizable=1;rotatable=1;deletable=1;editable=1;locked=0;connectable=1;" vertex="1" parent="1">
          <mxGeometry x="2925.1814999999997" y="2299.3615" width="19.685" height="19.685" as="geometry" />
        </mxCell>
        <mxCell id="WRUKcF40E02Dc5NdgmoT-63" value="" style="endArrow=none;html=1;rounded=0;movable=1;resizable=1;rotatable=1;deletable=1;editable=1;locked=0;connectable=1;" edge="1" parent="1">
          <mxGeometry width="50" height="50" relative="1" as="geometry">
            <mxPoint x="3033.4574999999995" y="2319.2050000000004" as="sourcePoint" />
            <mxPoint x="3033.4574999999995" y="2299.2050000000004" as="targetPoint" />
          </mxGeometry>
        </mxCell>
        <mxCell id="WRUKcF40E02Dc5NdgmoT-64" value="16" style="text;html=1;strokeColor=none;fillColor=none;align=center;verticalAlign=middle;whiteSpace=wrap;rounded=0;fontFamily=Open Sans;fontSize=18;movable=1;resizable=1;rotatable=1;deletable=1;editable=1;locked=0;connectable=1;" vertex="1" parent="1">
          <mxGeometry x="3122.0299999999993" y="2299.36" width="19.685" height="19.685" as="geometry" />
        </mxCell>
        <mxCell id="WRUKcF40E02Dc5NdgmoT-67" value="" style="endArrow=none;html=1;rounded=0;movable=1;resizable=1;rotatable=1;deletable=1;editable=1;locked=0;connectable=1;" edge="1" parent="1">
          <mxGeometry width="50" height="50" relative="1" as="geometry">
            <mxPoint x="19.697000000000006" y="382.08699999999993" as="sourcePoint" />
            <mxPoint x="39.74700000000001" y="382.08699999999993" as="targetPoint" />
          </mxGeometry>
        </mxCell>
        <mxCell id="WRUKcF40E02Dc5NdgmoT-68" value="B" style="text;html=1;strokeColor=none;fillColor=none;align=center;verticalAlign=middle;whiteSpace=wrap;rounded=0;fontFamily=Open Sans;fontSize=18;movable=1;resizable=1;rotatable=1;deletable=1;editable=1;locked=0;connectable=1;" vertex="1" parent="1">
          <mxGeometry x="19.877" y="273.81699999999995" width="19.685" height="19.685" as="geometry" />
        </mxCell>
        <mxCell id="WRUKcF40E02Dc5NdgmoT-69" value="" style="endArrow=none;html=1;rounded=0;movable=1;resizable=1;rotatable=1;deletable=1;editable=1;locked=0;connectable=1;" edge="1" parent="1">
          <mxGeometry width="50" height="50" relative="1" as="geometry">
            <mxPoint x="19.715500000000006" y="185.0455" as="sourcePoint" />
            <mxPoint x="39.7655" y="185.0455" as="targetPoint" />
          </mxGeometry>
        </mxCell>
        <mxCell id="WRUKcF40E02Dc5NdgmoT-70" value="A" style="text;html=1;strokeColor=none;fillColor=none;align=center;verticalAlign=middle;whiteSpace=wrap;rounded=0;fontFamily=Open Sans;fontSize=18;movable=1;resizable=1;rotatable=1;deletable=1;editable=1;locked=0;connectable=1;" vertex="1" parent="1">
          <mxGeometry x="19.6955" y="76.77550000000002" width="19.685" height="19.685" as="geometry" />
        </mxCell>
        <mxCell id="WRUKcF40E02Dc5NdgmoT-73" value="" style="endArrow=none;html=1;rounded=0;movable=1;resizable=1;rotatable=1;deletable=1;editable=1;locked=0;connectable=1;" edge="1" parent="1">
          <mxGeometry width="50" height="50" relative="1" as="geometry">
            <mxPoint x="19.489500000000017" y="1956.6794999999997" as="sourcePoint" />
            <mxPoint x="39.53950000000001" y="1956.6794999999997" as="targetPoint" />
          </mxGeometry>
        </mxCell>
        <mxCell id="WRUKcF40E02Dc5NdgmoT-74" value="L" style="text;html=1;strokeColor=none;fillColor=none;align=center;verticalAlign=middle;whiteSpace=wrap;rounded=0;fontFamily=Open Sans;fontSize=18;movable=1;resizable=1;rotatable=1;deletable=1;editable=1;locked=0;connectable=1;" vertex="1" parent="1">
          <mxGeometry x="19.6645" y="2045.2569999999996" width="19.685" height="19.685" as="geometry" />
        </mxCell>
        <mxCell id="WRUKcF40E02Dc5NdgmoT-75" value="" style="endArrow=none;html=1;rounded=0;movable=1;resizable=1;rotatable=1;deletable=1;editable=1;locked=0;connectable=1;" edge="1" parent="1">
          <mxGeometry width="50" height="50" relative="1" as="geometry">
            <mxPoint x="19.498000000000015" y="2153.3379999999997" as="sourcePoint" />
            <mxPoint x="39.54800000000001" y="2153.3379999999997" as="targetPoint" />
          </mxGeometry>
        </mxCell>
        <mxCell id="WRUKcF40E02Dc5NdgmoT-76" value="M" style="text;html=1;strokeColor=none;fillColor=none;align=center;verticalAlign=middle;whiteSpace=wrap;rounded=0;fontFamily=Open Sans;fontSize=18;movable=1;resizable=1;rotatable=1;deletable=1;editable=1;locked=0;connectable=1;" vertex="1" parent="1">
          <mxGeometry x="19.872999999999998" y="2242.1254999999996" width="19.685" height="19.685" as="geometry" />
        </mxCell>
        <mxCell id="WRUKcF40E02Dc5NdgmoT-77" value="" style="endArrow=none;html=1;rounded=0;strokeWidth=3;movable=1;resizable=1;rotatable=1;deletable=1;editable=1;locked=0;connectable=1;" edge="1" parent="1">
          <mxGeometry width="50" height="50" relative="1" as="geometry">
            <mxPoint x="3252.4885000000004" y="1169.2404999999999" as="sourcePoint" />
            <mxPoint x="3291.5085000000004" y="1169.2404999999999" as="targetPoint" />
          </mxGeometry>
        </mxCell>
        <mxCell id="WRUKcF40E02Dc5NdgmoT-78" value="" style="endArrow=none;html=1;rounded=0;movable=1;resizable=1;rotatable=1;deletable=1;editable=1;locked=0;connectable=1;" edge="1" parent="1">
          <mxGeometry width="50" height="50" relative="1" as="geometry">
            <mxPoint x="3271.6385000000005" y="972.4384999999997" as="sourcePoint" />
            <mxPoint x="3291.6885000000007" y="972.4384999999997" as="targetPoint" />
          </mxGeometry>
        </mxCell>
        <mxCell id="WRUKcF40E02Dc5NdgmoT-79" value="" style="endArrow=none;html=1;rounded=0;movable=1;resizable=1;rotatable=1;deletable=1;editable=1;locked=0;connectable=1;" edge="1" parent="1">
          <mxGeometry width="50" height="50" relative="1" as="geometry">
            <mxPoint x="3271.6410000000005" y="1366.1409999999996" as="sourcePoint" />
            <mxPoint x="3291.6910000000007" y="1366.1409999999996" as="targetPoint" />
          </mxGeometry>
        </mxCell>
        <mxCell id="WRUKcF40E02Dc5NdgmoT-80" value="E" style="text;html=1;strokeColor=none;fillColor=none;align=center;verticalAlign=middle;whiteSpace=wrap;rounded=0;fontFamily=Open Sans;fontSize=18;movable=1;resizable=1;rotatable=1;deletable=1;editable=1;locked=0;connectable=1;" vertex="1" parent="1">
          <mxGeometry x="3271.8385000000003" y="864.1714999999999" width="19.685" height="19.685" as="geometry" />
        </mxCell>
        <mxCell id="WRUKcF40E02Dc5NdgmoT-81" value="F" style="text;html=1;strokeColor=none;fillColor=none;align=center;verticalAlign=middle;whiteSpace=wrap;rounded=0;fontFamily=Open Sans;fontSize=18;movable=1;resizable=1;rotatable=1;deletable=1;editable=1;locked=0;connectable=1;" vertex="1" parent="1">
          <mxGeometry x="3271.8410000000003" y="1061.0215" width="19.685" height="19.685" as="geometry" />
        </mxCell>
        <mxCell id="WRUKcF40E02Dc5NdgmoT-82" value="G" style="text;html=1;strokeColor=none;fillColor=none;align=center;verticalAlign=middle;whiteSpace=wrap;rounded=0;fontFamily=Open Sans;fontSize=18;movable=1;resizable=1;rotatable=1;deletable=1;editable=1;locked=0;connectable=1;" vertex="1" parent="1">
          <mxGeometry x="3271.647" y="1257.8715" width="19.685" height="19.685" as="geometry" />
        </mxCell>
        <mxCell id="WRUKcF40E02Dc5NdgmoT-83" value="H" style="text;html=1;strokeColor=none;fillColor=none;align=center;verticalAlign=middle;whiteSpace=wrap;rounded=0;fontFamily=Open Sans;fontSize=18;movable=1;resizable=1;rotatable=1;deletable=1;editable=1;locked=0;connectable=1;" vertex="1" parent="1">
          <mxGeometry x="3271.647" y="1454.7214999999999" width="19.685" height="19.685" as="geometry" />
        </mxCell>
        <mxCell id="WRUKcF40E02Dc5NdgmoT-84" value="" style="endArrow=none;html=1;rounded=0;movable=1;resizable=1;rotatable=1;deletable=1;editable=1;locked=0;connectable=1;" edge="1" parent="1">
          <mxGeometry width="50" height="50" relative="1" as="geometry">
            <mxPoint x="3271.6370000000006" y="775.5869999999999" as="sourcePoint" />
            <mxPoint x="3291.6870000000004" y="775.5869999999999" as="targetPoint" />
          </mxGeometry>
        </mxCell>
        <mxCell id="WRUKcF40E02Dc5NdgmoT-85" value="D" style="text;html=1;strokeColor=none;fillColor=none;align=center;verticalAlign=middle;whiteSpace=wrap;rounded=0;fontFamily=Open Sans;fontSize=18;movable=1;resizable=1;rotatable=1;deletable=1;editable=1;locked=0;connectable=1;" vertex="1" parent="1">
          <mxGeometry x="3271.647" y="667.5169999999999" width="19.685" height="19.685" as="geometry" />
        </mxCell>
        <mxCell id="WRUKcF40E02Dc5NdgmoT-86" value="" style="endArrow=none;html=1;rounded=0;movable=1;resizable=1;rotatable=1;deletable=1;editable=1;locked=0;connectable=1;" edge="1" parent="1">
          <mxGeometry width="50" height="50" relative="1" as="geometry">
            <mxPoint x="3271.6395000000007" y="1563.1794999999997" as="sourcePoint" />
            <mxPoint x="3291.689500000001" y="1563.1794999999997" as="targetPoint" />
          </mxGeometry>
        </mxCell>
        <mxCell id="WRUKcF40E02Dc5NdgmoT-87" value="J" style="text;html=1;strokeColor=none;fillColor=none;align=center;verticalAlign=middle;whiteSpace=wrap;rounded=0;fontFamily=Open Sans;fontSize=18;movable=1;resizable=1;rotatable=1;deletable=1;editable=1;locked=0;connectable=1;" vertex="1" parent="1">
          <mxGeometry x="3271.647" y="1651.7569999999996" width="19.685" height="19.685" as="geometry" />
        </mxCell>
        <mxCell id="WRUKcF40E02Dc5NdgmoT-88" value="" style="endArrow=none;html=1;rounded=0;movable=1;resizable=1;rotatable=1;deletable=1;editable=1;locked=0;connectable=1;" edge="1" parent="1">
          <mxGeometry width="50" height="50" relative="1" as="geometry">
            <mxPoint x="3271.6355000000003" y="578.7455" as="sourcePoint" />
            <mxPoint x="3291.6855000000005" y="578.7455" as="targetPoint" />
          </mxGeometry>
        </mxCell>
        <mxCell id="WRUKcF40E02Dc5NdgmoT-89" value="C" style="text;html=1;strokeColor=none;fillColor=none;align=center;verticalAlign=middle;whiteSpace=wrap;rounded=0;fontFamily=Open Sans;fontSize=18;movable=1;resizable=1;rotatable=1;deletable=1;editable=1;locked=0;connectable=1;" vertex="1" parent="1">
          <mxGeometry x="3271.647" y="470.4755" width="19.685" height="19.685" as="geometry" />
        </mxCell>
        <mxCell id="WRUKcF40E02Dc5NdgmoT-90" value="" style="endArrow=none;html=1;rounded=0;movable=1;resizable=1;rotatable=1;deletable=1;editable=1;locked=0;connectable=1;" edge="1" parent="1">
          <mxGeometry width="50" height="50" relative="1" as="geometry">
            <mxPoint x="3271.6380000000004" y="1759.8379999999997" as="sourcePoint" />
            <mxPoint x="3291.6880000000006" y="1759.8379999999997" as="targetPoint" />
          </mxGeometry>
        </mxCell>
        <mxCell id="WRUKcF40E02Dc5NdgmoT-91" value="K" style="text;html=1;strokeColor=none;fillColor=none;align=center;verticalAlign=middle;whiteSpace=wrap;rounded=0;fontFamily=Open Sans;fontSize=18;movable=1;resizable=1;rotatable=1;deletable=1;editable=1;locked=0;connectable=1;" vertex="1" parent="1">
          <mxGeometry x="3271.8230000000003" y="1848.4154999999996" width="19.685" height="19.685" as="geometry" />
        </mxCell>
        <mxCell id="WRUKcF40E02Dc5NdgmoT-92" value="" style="endArrow=none;html=1;rounded=0;movable=1;resizable=1;rotatable=1;deletable=1;editable=1;locked=0;connectable=1;" edge="1" parent="1">
          <mxGeometry width="50" height="50" relative="1" as="geometry">
            <mxPoint x="3271.635500000001" y="381.8854999999999" as="sourcePoint" />
            <mxPoint x="3291.6855000000005" y="381.8854999999999" as="targetPoint" />
          </mxGeometry>
        </mxCell>
        <mxCell id="WRUKcF40E02Dc5NdgmoT-93" value="B" style="text;html=1;strokeColor=none;fillColor=none;align=center;verticalAlign=middle;whiteSpace=wrap;rounded=0;fontFamily=Open Sans;fontSize=18;movable=1;resizable=1;rotatable=1;deletable=1;editable=1;locked=0;connectable=1;" vertex="1" parent="1">
          <mxGeometry x="3271.647" y="273.62149999999997" width="19.685" height="19.685" as="geometry" />
        </mxCell>
        <mxCell id="WRUKcF40E02Dc5NdgmoT-94" value="" style="endArrow=none;html=1;rounded=0;movable=1;resizable=1;rotatable=1;deletable=1;editable=1;locked=0;connectable=1;" edge="1" parent="1">
          <mxGeometry width="50" height="50" relative="1" as="geometry">
            <mxPoint x="3271.4540000000006" y="185.04400000000004" as="sourcePoint" />
            <mxPoint x="3291.5040000000004" y="185.04400000000004" as="targetPoint" />
          </mxGeometry>
        </mxCell>
        <mxCell id="WRUKcF40E02Dc5NdgmoT-95" value="A" style="text;html=1;strokeColor=none;fillColor=none;align=center;verticalAlign=middle;whiteSpace=wrap;rounded=0;fontFamily=Open Sans;fontSize=18;movable=1;resizable=1;rotatable=1;deletable=1;editable=1;locked=0;connectable=1;" vertex="1" parent="1">
          <mxGeometry x="3271.6440000000007" y="76.77400000000002" width="19.685" height="19.685" as="geometry" />
        </mxCell>
        <mxCell id="WRUKcF40E02Dc5NdgmoT-97" value="" style="endArrow=none;html=1;rounded=0;movable=1;resizable=1;rotatable=1;deletable=1;editable=1;locked=0;connectable=1;" edge="1" parent="1">
          <mxGeometry width="50" height="50" relative="1" as="geometry">
            <mxPoint x="3271.6380000000004" y="1956.6779999999997" as="sourcePoint" />
            <mxPoint x="3291.688" y="1956.6779999999997" as="targetPoint" />
          </mxGeometry>
        </mxCell>
        <mxCell id="WRUKcF40E02Dc5NdgmoT-98" value="L" style="text;html=1;strokeColor=none;fillColor=none;align=center;verticalAlign=middle;whiteSpace=wrap;rounded=0;fontFamily=Open Sans;fontSize=18;movable=1;resizable=1;rotatable=1;deletable=1;editable=1;locked=0;connectable=1;" vertex="1" parent="1">
          <mxGeometry x="3271.8230000000003" y="2045.2554999999995" width="19.685" height="19.685" as="geometry" />
        </mxCell>
        <mxCell id="WRUKcF40E02Dc5NdgmoT-99" value="" style="endArrow=none;html=1;rounded=0;movable=1;resizable=1;rotatable=1;deletable=1;editable=1;locked=0;connectable=1;" edge="1" parent="1">
          <mxGeometry width="50" height="50" relative="1" as="geometry">
            <mxPoint x="3271.6565000000005" y="2153.5364999999997" as="sourcePoint" />
            <mxPoint x="3291.7065000000007" y="2153.5364999999997" as="targetPoint" />
          </mxGeometry>
        </mxCell>
        <mxCell id="WRUKcF40E02Dc5NdgmoT-100" value="M" style="text;html=1;strokeColor=none;fillColor=none;align=center;verticalAlign=middle;whiteSpace=wrap;rounded=0;fontFamily=Open Sans;fontSize=18;movable=1;resizable=1;rotatable=1;deletable=1;editable=1;locked=0;connectable=1;" vertex="1" parent="1">
          <mxGeometry x="3271.647" y="2242.124" width="19.685" height="19.685" as="geometry" />
        </mxCell>
        <object label="Drawing Frame" id="BJZrzUYKFe9HMTDBOYGV-83">
          <mxCell style="locked=1;" parent="0" />
        </object>
        <mxCell id="BJZrzUYKFe9HMTDBOYGV-84" value="" style="rounded=0;whiteSpace=wrap;html=1;fillColor=none;strokeWidth=3;movable=1;resizable=1;rotatable=1;deletable=1;editable=1;locked=0;connectable=1;" parent="BJZrzUYKFe9HMTDBOYGV-83" vertex="1">
          <mxGeometry x="39.3725" y="39.37" width="3232.277" height="2259.8379999999997" as="geometry" />
        </mxCell>
        <object label="Document" id="NbdiYjX3MhI7OpqD2NvG-1">
          <mxCell parent="0" />
        </object>
        <mxCell id="kxruepuoSyuf0zwoeRE9-1" value="This text is on the document layer. Lower layers have the title block and grid reference frame. These layers are locked to prevent disturbance, but you can unlock them in the &quot;Layers&quot; panel." style="text;html=1;strokeColor=none;fillColor=none;align=center;verticalAlign=middle;whiteSpace=wrap;rounded=0;fontFamily=Open Sans;movable=1;resizable=1;rotatable=1;deletable=1;editable=1;locked=0;connectable=1;" parent="NbdiYjX3MhI7OpqD2NvG-1" vertex="1">
          <mxGeometry x="196.85000000000002" y="147.64" width="330" height="70" as="geometry" />
        </mxCell>
      </root>
    </mxGraphModel>
  </diagram>
</mxfile>
